<svg xmlns="http://www.w3.org/2000/svg" width="108" height="42" viewBox="0 0 108 42" version="1.1">
    <path d="M 18.734 13.027 C 12.748 14.534, 7.697 17.531, 5.042 21.150 L 2.585 24.500 5.042 22.722 C 14.114 16.159, 22.496 15.944, 39.624 21.837 C 52.454 26.252, 65.189 28.525, 72.926 27.781 C 78.438 27.252, 91.033 21.403, 96 17.067 L 99.500 14.012 93.612 17.474 C 84.913 22.589, 81.872 23.320, 71.596 22.766 C 64.262 22.371, 59.787 21.368, 48.500 17.591 C 33.854 12.689, 25.289 11.376, 18.734 13.027" stroke="#fff" fill="#fff" fill-rule="evenodd"/>
    <path d="M 0 21.009 L 0 42.017 54.250 41.759 L 108.500 41.500 108.770 20.750 L 109.041 -0 54.520 -0 L 0 0 0 21.009 M 0 21.500 C 0 32.958, 0.240 42.093, 0.534 41.799 C 1.218 41.115, 1.198 1.864, 0.513 1.180 C 0.231 0.898, 0 10.042, 0 21.500 M 18.734 13.027 C 12.748 14.534, 7.697 17.531, 5.042 21.150 L 2.585 24.500 5.042 22.722 C 14.114 16.159, 22.496 15.944, 39.624 21.837 C 52.454 26.252, 65.189 28.525, 72.926 27.781 C 78.438 27.252, 91.033 21.403, 96 17.067 L 99.500 14.012 93.612 17.474 C 84.913 22.589, 81.872 23.320, 71.596 22.766 C 64.262 22.371, 59.787 21.368, 48.500 17.591 C 33.854 12.689, 25.289 11.376, 18.734 13.027" fill="transparent" fill-rule="evenodd"/>
</svg>