<svg version="1.1" xmlns="http://www.w3.org/2000/svg" width="390" height="150">
    <path d="M0 0 C132.33 0 264.66 0 401 0 C401 61.71 401 123.42 401 187 C268.67 187 136.34 187 0 187 C0 125.29 0 63.58 0 0 Z " fill="transparent" transform="translate(0,0)"/>
    <path d="M0 0 C13.2 -0.62 25.19 2.17 37.91 5.47 C40.79 6.2 43.68 6.88 46.58 7.53 C55.04 9.46 62.82 11.79 70.69 15.46 C86.19 22.59 103.03 26.99 119.44 31.53 C122.11 32.28 124.78 33.07 127.45 33.86 C148.78 40.17 169.06 42.5 191.29 42.67 C193.4 42.69 195.5 42.72 197.6 42.77 C212.82 43.1 225.66 41.21 240.04 36.26 C241.45 35.8 242.87 35.35 244.29 34.89 C251.37 32.6 257.08 29.68 263.04 25.26 C268.69 21.33 274.42 17.89 280.55 14.75 C283.13 13.35 283.13 13.35 285.11 11.08 C287.04 9.26 287.04 9.26 291.04 9.26 C289.67 12.42 289.05 13.25 286.04 15.26 C285.05 15.26 284.06 15.26 283.04 15.26 C282.98 15.83 282.92 16.39 282.86 16.98 C281.67 20.29 279.58 21.65 276.85 23.82 C275.91 24.59 274.96 25.35 273.99 26.14 C271.1 28.22 268.24 29.72 265.04 31.26 C263.37 32.28 261.73 33.32 260.1 34.39 C240.13 47.21 240.13 47.21 230.04 51.26 C228.33 52 226.62 52.73 224.91 53.46 C176.97 73.89 120.64 64.13 72.81 46.91 C66.75 44.76 60.64 43.04 54.41 41.45 C41.08 38.01 27.19 33.54 14.95 27.18 C12.96 26.23 11.27 25.8 9.1 25.45 C8 25.26 8 25.26 6.88 25.07 C6.13 24.95 5.38 24.82 4.6 24.7 C3.1 24.45 1.6 24.2 0.1 23.95 C-0.56 23.84 -1.22 23.73 -1.9 23.62 C-3.41 23.36 -4.92 23.06 -6.41 22.73 C-18.3 20.54 -31.55 21.62 -42.96 25.26 C-44.44 25.57 -45.92 25.86 -47.4 26.14 C-53.5 27.47 -59.22 29.86 -64.96 32.26 C-66.27 32.8 -66.27 32.8 -67.6 33.35 C-74.02 36.26 -78.94 40.44 -84.11 45.15 C-87.19 47.43 -89.18 47.97 -92.96 48.26 C-92.96 48.92 -92.96 49.58 -92.96 50.26 C-95.44 50.76 -95.44 50.76 -97.96 51.26 C-97.96 50.6 -97.96 49.94 -97.96 49.26 C-96.64 49.26 -95.32 49.26 -93.96 49.26 C-93.88 48.68 -93.79 48.11 -93.7 47.51 C-92.76 44.64 -91.34 43.34 -89.15 41.26 C-88.47 40.6 -87.78 39.94 -87.07 39.26 C-86.38 38.6 -85.68 37.94 -84.96 37.26 C-82.4 34.76 -80.02 32.19 -77.71 29.45 C-76.47 28.05 -75.22 26.65 -73.96 25.26 C-73.45 24.68 -72.93 24.1 -72.4 23.5 C-65.45 16.58 -55.83 13.12 -46.96 9.26 C-45.99 8.83 -45.02 8.39 -44.02 7.94 C-30.32 2.36 -14.62 0.97 0 0 Z " fill="#fff" transform="translate(102.96484375,58.73828125)"/>
    <path d="M0 0 C-1.37 3.16 -1.99 3.99 -5 6 C-5.99 6 -6.98 6 -8 6 C-8.09 6.85 -8.09 6.85 -8.18 7.71 C-9.37 11.02 -11.46 12.39 -14.19 14.56 C-15.13 15.33 -16.07 16.09 -17.04 16.88 C-19.94 18.96 -22.8 20.46 -26 22 C-27.66 23.02 -29.31 24.06 -30.94 25.12 C-35.62 28.13 -40.32 31.09 -45.06 34 C-45.72 34.41 -46.37 34.82 -47.05 35.24 C-48.66 36.22 -50.33 37.12 -52 38 C-52.66 37.67 -53.32 37.34 -54 37 C-54 36.01 -54 35.02 -54 34 C-53.01 33.5 -53.01 33.5 -52 33 C-54.64 32.67 -57.28 32.34 -60 32 C-60 32.66 -60 33.32 -60 34 C-67.73 35.29 -67.73 35.29 -72 33 C-71.44 32.84 -70.87 32.69 -70.29 32.53 C-48.01 26.84 -48.01 26.84 -28 16 C-22.35 12.07 -16.62 8.63 -10.48 5.49 C-7.9 4.09 -7.9 4.09 -5.93 1.82 C-4 0 -4 0 0 0 Z " fill="#fff" transform="translate(394,68)"/>
    <path d="M0 0 C2 1 2 1 3 3 C2.47 3.3 1.94 3.61 1.39 3.92 C-2.93 6.48 -6.1 8.78 -9 13 C-6.6 13.68 -6.6 13.68 -4 14 C-3.34 13.34 -2.68 12.68 -2 12 C1 10 1 10 4.19 10.38 C5.58 10.68 5.58 10.68 7 11 C4.68 12.18 2.34 13.3 -0.03 14.38 C-7.86 18.04 -13.95 22.07 -20.28 27.96 C-23.29 30.22 -25.29 30.71 -29 31 C-29 31.66 -29 32.32 -29 33 C-31.48 33.5 -31.48 33.5 -34 34 C-34 33.34 -34 32.68 -34 32 C-32.68 32 -31.36 32 -30 32 C-29.91 31.42 -29.83 30.84 -29.74 30.25 C-28.8 27.38 -27.37 26.08 -25.19 24 C-24.5 23.34 -23.81 22.68 -23.11 22 C-22.41 21.34 -21.72 20.68 -21 20 C-18.44 17.49 -16.05 14.93 -13.75 12.19 C-9.83 7.67 -5.41 2.71 0 0 Z " fill="#fff" transform="translate(39,76)"/>
    <path d="M0 0 C2.29 0.14 4.58 0.29 6.88 0.44 C8.15 0.52 9.43 0.6 10.74 0.68 C14 1 14 1 16 2 C18.82 2.27 21.64 2.45 24.47 2.62 C27 3 27 3 29 5 C36.59 7.2 44.3 7.23 52.12 7.06 C54.17 7.03 56.21 7 58.26 6.97 C59.59 6.95 59.59 6.95 60.95 6.92 C63 7 63 7 64 8 C66.07 8.09 68.15 8.11 70.22 8.1 C72.11 8.09 72.11 8.09 74.04 8.09 C75.38 8.08 76.72 8.07 78.06 8.06 C79.41 8.06 80.75 8.05 82.1 8.05 C85.4 8.04 88.7 8.02 92 8 C91.67 8.99 91.34 9.98 91 11 C61.01 11.46 28.68 11.11 0 1 C0 0.67 0 0.34 0 0 Z " fill="#fff" transform="translate(199,112)"/>
    <path d="M0 0 C4.58 -0.06 9.17 -0.09 13.75 -0.12 C15.05 -0.14 16.35 -0.16 17.7 -0.18 C18.95 -0.18 20.2 -0.19 21.48 -0.2 C22.64 -0.21 23.79 -0.22 24.98 -0.23 C27.9 -0.01 29.54 0.47 32 2 C32 2.33 32 2.66 32 3 C34.64 3 37.28 3 40 3 C40 3.66 40 4.32 40 5 C40.78 4.75 41.57 4.5 42.38 4.25 C47.54 3.89 51.37 5.87 56 8 C55.34 8.66 54.68 9.32 54 10 C51.5 9.74 49.55 9.32 47.36 8.05 C43.88 6.5 40.31 6.04 36.56 5.44 C35.06 5.19 33.57 4.94 32.07 4.68 C31.35 4.57 30.64 4.45 29.91 4.33 C28.44 4.08 26.98 3.77 25.53 3.44 C21.71 2.77 17.87 2.67 14 2.5 C4.47 2.08 4.47 2.08 0 1 C0 0.67 0 0.34 0 0 Z " fill="#fff" transform="translate(71,78)"/>
    <path d="M0 0 C6.17 1.13 12.28 2.48 18.38 3.94 C19.06 4.1 19.75 4.25 20.46 4.42 C24.27 5.34 27.07 6.37 30 9 C26.09 10.05 23.6 9.9 19.75 8.69 C18.44 8.29 18.44 8.29 17.11 7.89 C15 7 15 7 14 5 C12.24 5.06 12.24 5.06 10.44 5.12 C6.28 5.14 2.94 4.31 -1 3 C-0.67 2.01 -0.34 1.02 0 0 Z " fill="#fff" transform="translate(141,65)"/>
    <path d="M0 0 C-8.39 5.59 -20.74 10.81 -31 10 C-30.36 9.71 -29.72 9.42 -29.06 9.12 C-26.85 8.17 -26.85 8.17 -26 6 C-25.05 5.9 -24.1 5.79 -23.12 5.69 C-18.48 5.18 -14.62 3.16 -10.45 1.16 C-6.41 -0.75 -4.3 -1.05 0 0 Z " fill="#fff" transform="translate(326,112)"/>
    <path d="M0 0 C1.06 0.02 2.12 0.04 3.21 0.06 C4.91 0.1 4.91 0.1 6.63 0.14 C7.8 0.17 8.97 0.19 10.17 0.21 C13.89 0.29 17.61 0.37 21.33 0.46 C23.85 19.51 26.38 0.57 28.91 0.62 C35.09 0.75 41.27 0.88 47.45 1.02 C47.45 1.35 47.45 1.68 47.45 2.02 C40.64 2.19 33.82 2.35 27 2.5 C24.68 2.56 22.36 2.61 20.04 2.67 C16.71 2.75 13.38 2.83 10.05 2.9 C9.01 2.93 7.96 2.95 6.89 2.98 C5.92 3 4.96 3.02 3.97 3.04 C2.7 3.07 2.7 3.07 1.4 3.1 C-0.55 3.02 -0.55 3.02 -1.55 2.02 C-3.23 1.95 -4.92 1.94 -6.61 1.96 C-7.53 1.97 -8.45 1.98 -9.39 1.99 C-10.1 2 -10.81 2.01 -11.55 2.02 C-11.55 1.69 -11.55 1.36 -11.55 1.02 C-7.63 0.29 -3.98 -0.09 0 0 Z " fill="#fff" transform="translate(269.54638671875,100.978271484375)"/>
    <path d="M0 0 C0 0.66 0 1.32 0 2 C-2.64 2.66 -5.28 3.32 -8 4 C-8 4.66 -8 5.32 -8 6 C-15.73 7.29 -15.73 7.29 -20 5 C-17.04 4.16 -14.08 3.33 -11.12 2.5 C-10.28 2.26 -9.44 2.02 -8.57 1.78 C-7.77 1.55 -6.96 1.33 -6.13 1.09 C-5.02 0.78 -5.02 0.78 -3.88 0.46 C-2 0 -2 0 0 0 Z " fill="#fff" transform="translate(342,96)"/>
    <path d="M0 0 C3.54 0.43 6.91 1.52 10.31 2.56 C11.2 2.83 12.08 3.1 12.99 3.38 C13.65 3.58 14.32 3.79 15 4 C14.34 4.66 13.68 5.32 13 6 C7.54 5.67 3.01 4.02 -2 2 C-1.34 1.34 -0.68 0.68 0 0 Z " fill="#fff" transform="translate(181,78)"/>
    <path d="M0 0 C6.41 1.11 12.71 2.34 19 4 C16.6 5.53 15.46 6.07 12.6 5.61 C11.76 5.33 10.92 5.04 10.06 4.75 C9.19 4.46 8.32 4.17 7.42 3.87 C4.92 2.97 2.44 2.06 0 1 C0 0.67 0 0.34 0 0 Z " fill="#fff"  transform="translate(131,90)"/>
    <path d="M0 0 C0.99 0.33 1.98 0.66 3 1 C1.6 3.8 -0.14 3.91 -3 5 C-3.99 5.66 -4.98 6.32 -6 7 C-8.19 6.62 -8.19 6.62 -10 6 C-8.71 5.19 -7.42 4.37 -6.12 3.56 C-5.05 2.88 -5.05 2.88 -3.95 2.19 C-2 1 -2 1 0 0 Z " fill="#fff" transform="translate(336,105)"/>
    <path d="M0 0 C-3.23 2.86 -5.6 4.77 -10 5 C-10.99 4.34 -11.98 3.68 -13 3 C-11.4 2.3 -9.8 1.62 -8.19 0.94 C-7.29 0.55 -6.4 0.17 -5.48 -0.22 C-3 -1 -3 -1 0 0 Z " fill="#fff" transform="translate(62,68)"/>
    <path d="M0 0 C5.03 0.53 10.02 1.11 15 2 C15 2.33 15 2.66 15 3 C5.59 4.33 5.59 4.33 1 3 C0.67 2.01 0.34 1.02 0 0 Z " fill="#fff" transform="translate(126,62)"/>
    <path d="M0 0 C4.14 0.3 6.52 0.68 10 3 C5.28 3.92 2.33 4.23 -2 2 C-1.34 1.34 -0.68 0.68 0 0 Z " fill="#fff" transform="translate(208,87)"/>
    <path d="M0 0 C0.93 0.21 1.86 0.41 2.81 0.62 C1.48 1.29 0.15 1.96 -1.19 2.62 C-2.2 3.18 -3.21 3.74 -4.25 4.31 C-7.19 5.62 -7.19 5.62 -10.19 4.62 C-3.54 -0.42 -3.54 -0.42 0 0 Z " fill="#fff" transform="translate(43.1875,86.375)"/>
    <path d="M0 0 C3.84 0.3 6.09 1.52 9 4 C6.83 4.95 5.44 5.14 3.18 4.4 C1.43 3.64 -0.29 2.82 -2 2 C-1.34 1.34 -0.68 0.68 0 0 Z " fill="#fff" transform="translate(171,74)"/>
    <path d="M0 0 C0 0.99 0 1.98 0 3 C-7.75 2.25 -7.75 2.25 -10 0 C-6.31 -1.23 -3.79 -0.64 0 0 Z " fill="#fff" transform="translate(198,109)"/>
    <path d="M0 0 C0.33 0.66 0.66 1.32 1 2 C1.66 2.33 2.32 2.66 3 3 C0.62 4.56 0.62 4.56 -2 6 C-2.66 5.67 -3.32 5.34 -4 5 C-4 4.01 -4 3.02 -4 2 C-2.68 1.34 -1.36 0.68 0 0 Z " fill="#fff" transform="translate(344,100)"/>
    <path d="M0 0 C2.64 0.66 5.28 1.32 8 2 C7.01 2.66 6.02 3.32 5 4 C1.81 3.12 1.81 3.12 -1 2 C-0.67 1.34 -0.34 0.68 0 0 Z " fill="#fff" transform="translate(196,83)"/>
    <path d="M0 0 C-3.17 1.91 -5.11 2.16 -8.75 1.62 C-9.55 1.51 -10.35 1.4 -11.17 1.29 C-11.78 1.19 -12.38 1.1 -13 1 C-13 0.67 -13 0.34 -13 0 C-4.57 -1.29 -4.57 -1.29 0 0 Z " fill="#fff" transform="translate(102,61)"/>
    <path d="M0 0 C0 0.66 0 1.32 0 2 C0.99 2.33 1.98 2.66 3 3 C-0.96 2.67 -4.92 2.34 -9 2 C-9 1.67 -9 1.34 -9 1 C-5.94 0.46 -3.11 0 0 0 Z " fill="#fff" transform="translate(111,81)"/>
</svg>
