<svg xmlns="http://www.w3.org/2000/svg" width="108" height="42" viewBox="0 0 108 42" version="1.1">
    <path d="M 99.913 9.605 C 97.349 12.694, 86.851 19.159, 81.294 21.071 C 71.012 24.608, 58.111 23.015, 36.500 15.540 C 21.792 10.452, 12.382 11.558, 4.999 19.241 L 0.969 23.435 4.445 26.912 L 7.921 30.388 11.507 26.696 C 19.066 18.913, 25.228 17.734, 39 21.437 C 63.496 28.022, 65.535 28.335, 76.124 27.131 C 89.467 25.614, 95.538 23.075, 103.745 15.581 L 106.990 12.618 104.820 10.309 C 102.248 7.570, 101.670 7.488, 99.913 9.605" stroke="#fff" fill="#fff" fill-rule="evenodd"/>
    <path d="M 0 21.009 L 0 42.017 54.250 41.759 L 108.500 41.500 108.770 20.750 L 109.041 -0 54.520 -0 L 0 0 0 21.009 M 0.421 21.500 C 0.418 33.050, 0.565 38.267, 0.747 33.092 L 1.079 23.684 4.518 27.018 L 7.957 30.351 11.525 26.677 C 19.064 18.914, 25.238 17.737, 39 21.437 C 63.496 28.022, 65.535 28.335, 76.124 27.131 C 89.343 25.628, 98.160 21.822, 104.756 14.770 L 107.011 12.359 104.499 9.999 L 101.987 7.639 99.243 10.172 C 90.382 18.356, 79.461 23.001, 69.093 22.997 C 62.376 22.995, 49.604 20.073, 36.500 15.540 C 21.830 10.465, 12.378 11.562, 5.049 19.190 L 1.069 23.331 0.748 11.916 C 0.572 5.637, 0.425 9.950, 0.421 21.500" fill="transparent" fill-rule="evenodd"/>
</svg>