<svg  version="1.1" xmlns="http://www.w3.org/2000/svg" xmlns:xlink="http://www.w3.org/1999/xlink" width="390" height="150" viewBox="0, 0, 500,150"><g id="svgg"><path id="path0" d="M336.190 58.008 C 334.652 58.136,334.410 58.300,333.641 59.745 C 333.138 60.691,330.442 63.400,329.167 64.242 C 328.571 64.635,327.858 65.154,327.583 65.395 C 326.960 65.942,324.847 67.197,323.788 67.651 C 323.351 67.838,322.946 68.124,322.888 68.287 C 322.598 69.110,321.905 69.725,320.587 70.332 C 319.833 70.678,319.172 71.080,319.116 71.224 C 319.061 71.368,318.431 71.920,317.716 72.451 C 317.001 72.981,316.215 73.566,315.968 73.749 C 315.721 73.933,315.009 74.503,314.385 75.016 C 313.761 75.529,312.912 76.128,312.500 76.346 C 312.087 76.564,311.375 77.087,310.917 77.507 C 310.458 77.928,309.708 78.487,309.250 78.751 C 308.792 79.015,307.998 79.554,307.487 79.951 C 306.650 80.599,304.077 81.823,303.535 81.830 C 303.134 81.836,302.085 82.467,301.583 83.006 C 301.308 83.301,300.821 83.664,300.500 83.814 C 299.649 84.211,297.994 85.383,297.417 85.998 C 296.885 86.565,295.741 87.209,294.917 87.404 C 293.388 87.767,292.034 88.396,291.250 89.107 C 290.275 89.992,289.175 90.548,287.667 90.919 C 286.186 91.283,285.666 91.493,285.100 91.957 C 283.892 92.948,280.224 94.406,276.417 95.409 C 273.831 96.090,272.276 96.614,270.884 97.273 C 269.070 98.131,267.415 98.424,262.000 98.846 C 260.671 98.949,258.833 99.098,257.917 99.176 C 257.000 99.255,255.050 99.324,253.583 99.330 C 250.730 99.343,249.490 99.549,247.027 100.419 C 245.266 101.041,243.735 101.165,237.833 101.160 C 231.621 101.156,230.517 101.045,228.911 100.263 C 227.655 99.651,226.224 99.423,221.000 99.002 C 217.556 98.724,212.856 97.900,209.133 96.921 C 207.894 96.595,205.501 96.101,203.815 95.824 C 202.129 95.547,200.225 95.179,199.583 95.006 C 198.942 94.834,197.854 94.604,197.167 94.497 C 193.809 93.972,190.164 92.824,187.685 91.509 C 187.335 91.324,185.931 91.003,184.333 90.743 C 181.055 90.210,180.670 90.068,179.570 88.984 L 178.723 88.150 175.361 87.671 C 171.792 87.161,170.805 86.854,169.546 85.858 C 168.646 85.148,166.924 84.667,165.274 84.666 C 162.649 84.664,158.531 83.773,157.298 82.940 C 156.626 82.486,155.507 82.053,152.971 81.266 C 151.780 80.896,150.686 80.433,150.148 80.071 C 149.061 79.339,147.214 78.617,144.829 77.992 C 143.828 77.729,142.538 77.327,141.963 77.100 C 141.387 76.872,140.000 76.455,138.879 76.175 C 136.078 75.472,134.260 74.883,133.115 74.306 C 132.582 74.038,131.750 73.745,131.265 73.655 C 129.949 73.412,126.021 72.104,124.634 71.447 C 123.271 70.802,122.905 70.753,115.083 70.179 C 111.778 69.936,110.710 69.798,109.917 69.511 C 105.411 67.882,102.606 67.720,98.167 68.831 C 95.469 69.506,93.931 69.776,91.073 70.075 C 86.835 70.518,85.532 70.789,84.583 71.429 C 83.293 72.298,81.083 73.025,77.500 73.758 C 77.156 73.828,76.568 74.193,76.066 74.647 C 75.013 75.599,74.210 76.003,69.414 77.998 C 67.147 78.940,65.993 79.562,64.986 80.381 C 64.485 80.790,63.622 81.353,63.068 81.632 C 62.466 81.936,61.823 82.432,61.466 82.867 C 61.138 83.267,60.581 83.742,60.227 83.922 C 59.159 84.466,58.339 85.170,58.002 85.830 C 57.826 86.174,57.300 86.776,56.832 87.167 C 56.365 87.559,55.802 88.225,55.580 88.648 C 55.085 89.596,54.758 89.986,53.967 90.571 C 53.627 90.822,53.125 91.426,52.849 91.914 C 52.574 92.403,51.968 93.128,51.504 93.526 C 51.040 93.924,50.461 94.550,50.217 94.917 C 49.973 95.283,49.409 95.969,48.963 96.440 C 48.412 97.023,47.976 97.722,47.601 98.623 L 47.051 99.948 47.759 101.433 C 48.310 102.588,48.620 103.027,49.161 103.415 C 49.543 103.689,50.036 104.150,50.256 104.440 C 50.477 104.729,52.484 106.799,54.716 109.041 C 56.948 111.282,58.946 113.356,59.155 113.650 C 59.364 113.944,59.847 114.377,60.226 114.612 C 60.606 114.846,61.229 115.339,61.612 115.707 L 62.307 116.377 63.754 115.647 C 64.724 115.158,65.375 114.701,65.726 114.265 C 66.622 113.149,70.424 109.380,70.762 109.272 C 70.939 109.215,71.336 108.797,71.645 108.343 C 72.146 107.607,73.260 106.667,73.632 106.667 C 73.848 106.667,74.600 105.807,74.894 105.223 C 75.151 104.714,76.264 103.667,76.549 103.667 C 76.797 103.667,77.833 102.800,77.833 102.594 C 77.833 102.193,79.020 101.020,79.957 100.495 C 80.485 100.199,81.225 99.685,81.601 99.353 C 81.977 99.021,82.714 98.412,83.239 98.000 C 83.763 97.587,84.717 96.817,85.357 96.288 C 85.998 95.759,87.044 95.064,87.681 94.743 C 88.319 94.421,89.183 93.898,89.600 93.579 C 90.017 93.261,90.428 93.000,90.513 93.000 C 90.598 93.000,91.376 92.662,92.241 92.250 C 93.106 91.837,93.876 91.500,93.952 91.500 C 94.029 91.500,94.352 91.286,94.670 91.024 C 95.803 90.094,96.772 89.780,101.167 88.917 C 102.605 88.635,103.748 88.305,104.336 88.004 C 109.668 85.273,131.599 85.264,136.564 87.991 C 137.796 88.667,139.843 89.108,143.167 89.411 C 147.227 89.781,149.005 90.188,150.028 90.982 C 150.894 91.654,154.005 92.452,156.917 92.748 C 159.150 92.976,160.912 93.392,162.231 94.003 C 163.757 94.710,165.357 95.103,169.333 95.747 C 175.315 96.716,176.711 97.117,180.444 98.935 C 182.000 99.693,182.662 99.910,184.486 100.260 C 187.212 100.782,188.502 101.178,190.463 102.093 C 192.175 102.892,193.660 103.229,197.083 103.592 C 199.811 103.881,201.526 104.442,202.716 105.436 C 203.577 106.154,205.878 106.600,210.778 106.998 C 213.001 107.179,214.269 107.458,215.341 108.004 C 215.665 108.170,216.565 108.391,217.341 108.497 C 218.116 108.602,219.425 108.835,220.250 109.013 C 223.959 109.818,224.327 109.842,234.417 109.938 C 249.294 110.080,261.695 109.795,264.167 109.253 C 265.507 108.960,266.835 108.805,268.583 108.737 C 271.228 108.635,272.885 108.383,275.115 107.742 C 276.855 107.242,279.601 106.833,281.219 106.833 C 283.519 106.833,287.661 105.947,288.688 105.235 C 289.809 104.458,295.585 103.000,297.542 103.000 C 297.575 103.000,297.897 102.730,298.257 102.399 C 299.203 101.533,300.254 101.054,302.466 100.482 C 304.405 99.981,304.965 99.729,306.608 98.623 C 307.080 98.305,308.018 97.814,308.692 97.532 C 309.365 97.250,310.479 96.743,311.167 96.406 C 311.854 96.068,312.899 95.609,313.488 95.386 C 314.656 94.944,315.272 94.567,316.167 93.746 C 316.487 93.452,317.500 92.795,318.417 92.286 C 319.340 91.774,320.418 91.019,320.833 90.594 C 321.382 90.033,321.998 89.649,323.127 89.164 C 324.134 88.731,325.091 88.158,325.877 87.518 C 326.541 86.978,327.571 86.293,328.167 85.997 C 328.762 85.701,329.319 85.337,329.402 85.188 C 329.742 84.584,330.781 83.779,332.034 83.149 C 333.609 82.358,334.352 81.837,335.535 80.695 C 336.020 80.227,336.792 79.483,337.250 79.042 C 337.708 78.600,339.283 77.013,340.750 75.514 C 343.394 72.812,344.823 71.585,345.797 71.182 C 346.239 70.999,346.358 70.795,346.741 69.565 C 347.284 67.826,347.664 68.442,343.340 64.055 C 342.511 63.214,341.833 62.462,341.833 62.384 C 341.833 62.306,341.414 61.831,340.902 61.329 C 340.390 60.827,339.809 60.231,339.610 60.005 C 339.412 59.778,338.875 59.210,338.417 58.743 L 337.583 57.893 336.190 58.008 " stroke="none" fill="#f1f1f1" fill-rule="evenodd"></path><path id="path1" d="M0.000 76.750 L 0.000 153.500 200.000 153.500 L 400.000 153.500 400.000 76.750 L 400.000 0.000 200.000 0.000 L 0.000 0.000 0.000 76.750 M338.731 54.368 C 339.189 54.503,339.721 54.880,340.333 55.505 C 340.837 56.020,341.512 56.622,341.833 56.842 C 342.371 57.211,344.175 59.024,347.142 62.176 C 347.794 62.869,348.539 63.823,348.797 64.295 C 349.056 64.768,349.570 65.375,349.940 65.642 C 351.842 67.020,351.790 71.358,349.855 72.804 C 349.526 73.049,348.842 73.669,348.334 74.182 C 347.826 74.694,347.112 75.307,346.747 75.543 C 346.382 75.779,345.890 76.185,345.654 76.445 C 344.678 77.515,341.667 80.412,340.523 81.379 C 336.958 84.394,336.567 84.685,335.633 85.026 C 334.915 85.287,334.577 85.522,334.321 85.936 C 333.923 86.580,333.250 87.099,332.466 87.366 C 331.666 87.638,330.633 88.396,330.250 88.991 C 329.837 89.634,328.169 90.732,327.167 91.022 C 326.754 91.141,326.019 91.561,325.534 91.954 C 325.048 92.347,324.260 92.866,323.784 93.108 C 323.307 93.349,322.578 93.892,322.164 94.315 C 321.751 94.737,320.791 95.458,320.031 95.917 C 319.271 96.375,318.174 97.132,317.592 97.600 C 316.706 98.311,316.185 98.565,314.395 99.161 C 312.603 99.757,312.124 99.991,311.443 100.603 C 310.592 101.368,309.415 101.822,306.696 102.434 C 305.671 102.664,305.381 102.810,304.891 103.339 C 304.039 104.261,303.005 104.624,299.616 105.193 C 296.689 105.685,296.561 105.723,295.937 106.287 C 294.869 107.252,291.653 108.500,290.235 108.500 C 290.026 108.500,289.270 108.716,288.553 108.979 C 285.557 110.080,282.783 110.799,281.166 110.893 C 279.265 111.004,277.785 111.329,276.086 112.010 C 274.623 112.595,272.936 112.830,270.167 112.833 C 269.112 112.834,267.125 112.991,265.750 113.183 C 263.699 113.468,262.157 113.543,257.167 113.599 C 253.821 113.636,250.458 113.745,249.694 113.841 C 247.933 114.063,230.609 114.056,228.667 113.832 C 227.887 113.743,226.611 113.669,225.829 113.668 C 224.222 113.667,222.196 113.447,220.291 113.068 C 219.581 112.927,218.118 112.754,217.041 112.684 C 215.430 112.579,214.860 112.466,213.822 112.045 C 212.505 111.512,211.315 111.238,207.833 110.667 C 205.203 110.236,203.692 109.792,202.390 109.070 C 201.825 108.756,201.212 108.500,201.028 108.500 C 199.827 108.500,195.554 106.941,194.415 106.087 C 193.776 105.608,193.533 105.562,189.917 105.246 C 185.839 104.889,183.979 104.368,182.658 103.211 C 182.058 102.685,181.789 102.608,178.417 102.000 C 177.408 101.817,176.321 101.589,176.000 101.491 C 175.679 101.393,175.022 101.206,174.541 101.075 C 174.059 100.944,173.234 100.622,172.707 100.359 C 171.579 99.797,169.744 99.469,164.167 98.834 C 162.285 98.620,159.671 97.961,158.164 97.320 C 157.567 97.066,155.767 96.588,154.164 96.257 C 149.559 95.306,148.552 95.049,147.364 94.519 C 146.751 94.246,145.650 93.901,144.917 93.752 C 144.183 93.603,142.796 93.264,141.833 92.999 C 137.545 91.816,135.110 91.265,133.250 91.054 C 132.150 90.929,129.975 90.534,128.417 90.176 C 122.955 88.921,118.719 88.624,116.078 89.308 C 115.342 89.499,114.051 89.733,113.210 89.828 C 112.369 89.924,111.021 90.220,110.215 90.487 C 109.310 90.787,108.177 91.018,107.250 91.092 C 105.693 91.215,103.018 91.800,102.331 92.168 C 101.966 92.363,100.781 92.817,98.231 93.737 C 97.671 93.940,96.856 94.341,96.421 94.629 C 95.986 94.917,95.378 95.236,95.069 95.338 C 94.030 95.681,91.421 97.102,90.867 97.628 C 90.565 97.914,89.890 98.306,89.367 98.499 C 88.284 98.899,87.140 99.663,86.454 100.443 C 85.815 101.172,84.434 102.061,83.359 102.438 C 82.760 102.648,82.395 102.890,82.246 103.177 C 81.903 103.835,80.999 104.655,80.117 105.105 C 79.625 105.357,79.112 105.804,78.786 106.267 C 78.494 106.681,77.866 107.278,77.389 107.594 C 76.805 107.982,76.327 108.491,75.924 109.155 C 75.536 109.793,75.047 110.323,74.537 110.656 C 74.049 110.976,73.529 111.529,73.167 112.114 C 72.797 112.711,72.260 113.277,71.700 113.661 C 71.135 114.048,70.645 114.567,70.341 115.100 C 69.891 115.888,68.664 117.167,68.358 117.167 C 68.280 117.167,67.988 117.534,67.709 117.983 C 66.758 119.513,63.702 120.546,61.746 119.999 C 60.626 119.685,58.727 118.362,57.690 117.173 C 57.199 116.609,56.487 115.955,56.107 115.718 C 55.727 115.481,55.061 114.893,54.627 114.411 C 54.192 113.928,53.503 113.338,53.096 113.099 C 52.688 112.861,52.189 112.422,51.987 112.124 C 51.784 111.827,51.048 111.009,50.351 110.307 C 47.388 107.322,43.734 102.951,43.359 101.941 C 42.502 99.636,42.992 97.173,44.611 95.648 C 44.962 95.317,45.530 94.567,45.873 93.982 C 46.266 93.310,46.820 92.667,47.373 92.241 C 47.855 91.869,48.416 91.307,48.619 90.991 C 49.372 89.824,49.729 89.406,50.351 88.965 C 50.700 88.716,51.133 88.228,51.312 87.881 C 51.650 87.225,52.306 86.555,53.375 85.773 C 53.719 85.522,54.000 85.240,54.000 85.147 C 54.000 84.719,55.096 83.446,55.805 83.050 C 56.342 82.750,56.738 82.352,57.083 81.767 C 57.448 81.149,57.832 80.775,58.500 80.390 C 59.474 79.829,59.512 79.795,60.420 78.727 C 60.742 78.347,61.412 77.831,61.908 77.580 C 62.405 77.329,63.107 76.839,63.468 76.493 C 64.300 75.693,65.037 75.320,67.281 74.563 C 68.272 74.228,69.300 73.774,69.564 73.553 C 70.260 72.971,71.086 72.582,72.502 72.172 C 76.168 71.110,76.580 70.950,77.167 70.363 C 78.344 69.187,79.016 69.007,84.465 68.413 L 86.846 68.153 88.465 67.252 C 92.493 65.010,104.339 64.058,110.417 65.489 C 111.150 65.661,112.350 65.889,113.083 65.995 C 114.996 66.271,117.360 66.920,118.821 67.569 C 120.062 68.122,120.161 68.137,124.667 68.474 C 129.909 68.867,130.434 68.993,131.723 70.171 C 132.816 71.170,133.498 71.362,137.622 71.830 C 141.085 72.222,142.314 72.548,143.451 73.375 C 144.390 74.060,145.395 74.384,147.977 74.836 C 150.077 75.204,150.986 75.543,151.842 76.280 C 152.399 76.760,154.177 77.473,157.167 78.417 C 157.946 78.663,158.916 79.057,159.324 79.291 C 160.247 79.823,162.569 80.524,165.500 81.154 C 166.737 81.420,168.425 81.861,169.250 82.134 C 170.075 82.407,171.480 82.785,172.373 82.976 C 174.306 83.388,175.648 83.989,176.608 84.873 L 177.313 85.523 180.677 86.006 C 184.943 86.617,185.323 86.738,186.667 87.911 C 187.326 88.486,187.604 88.549,194.474 89.663 C 197.433 90.143,198.674 90.413,199.057 90.659 C 200.379 91.509,202.755 92.026,206.333 92.243 C 210.138 92.474,213.704 93.091,215.018 93.746 C 215.683 94.078,217.784 94.741,219.196 95.065 C 219.441 95.121,221.466 95.279,223.696 95.417 C 225.926 95.555,228.275 95.785,228.917 95.928 C 233.388 96.927,241.095 96.947,246.667 95.976 C 248.092 95.727,249.864 95.604,253.583 95.497 C 262.766 95.231,265.261 94.922,267.758 93.742 C 269.195 93.062,270.929 92.570,272.727 92.330 C 274.405 92.106,277.296 91.541,277.557 91.386 C 277.663 91.323,278.012 91.064,278.333 90.810 C 279.247 90.087,280.312 89.693,282.789 89.160 C 284.051 88.888,285.248 88.628,285.450 88.582 C 285.652 88.536,286.130 88.164,286.512 87.756 C 287.261 86.958,288.716 86.252,290.631 85.758 C 291.444 85.548,291.804 85.349,292.239 84.867 C 292.547 84.526,293.088 84.095,293.441 83.910 C 295.093 83.043,296.010 82.429,297.136 81.436 C 297.806 80.844,298.699 80.198,299.120 80.000 C 299.541 79.802,300.155 79.424,300.485 79.159 C 300.815 78.894,301.497 78.534,302.001 78.360 C 303.506 77.839,305.186 76.837,306.268 75.814 C 306.827 75.285,307.710 74.651,308.230 74.405 C 308.749 74.159,309.326 73.744,309.512 73.484 C 309.860 72.994,312.149 71.805,313.776 71.268 C 314.428 71.052,314.659 70.886,314.736 70.578 C 314.904 69.912,315.876 69.090,316.968 68.692 C 317.756 68.404,318.247 68.064,319.127 67.195 C 319.753 66.576,320.618 65.816,321.049 65.506 C 321.481 65.197,321.833 64.888,321.833 64.820 C 321.833 64.669,323.820 63.085,324.792 62.461 C 325.183 62.211,325.981 61.560,326.567 61.015 C 327.153 60.470,327.939 59.868,328.314 59.677 C 328.751 59.454,329.111 59.102,329.317 58.699 C 329.494 58.352,329.976 57.772,330.388 57.409 C 331.785 56.181,332.083 55.887,332.396 55.426 C 333.156 54.306,336.575 53.735,338.731 54.368 " fill="transparent" fill-rule="evenodd"></path><path id="path2" d="M336.133 56.165 C 335.335 56.212,334.615 56.325,334.534 56.417 C 334.453 56.508,333.783 57.333,333.046 58.250 C 331.404 60.291,328.978 62.664,327.417 63.757 C 326.775 64.206,325.884 64.860,325.437 65.209 C 324.989 65.558,324.121 66.138,323.506 66.496 C 322.865 66.871,322.062 67.531,321.623 68.046 C 321.021 68.751,320.487 69.133,319.136 69.827 C 318.008 70.407,317.073 71.037,316.417 71.659 C 315.867 72.181,314.877 72.922,314.217 73.306 C 313.557 73.691,312.970 74.081,312.913 74.173 C 312.856 74.266,312.134 74.795,311.310 75.349 C 310.486 75.903,308.972 76.993,307.947 77.771 C 306.717 78.705,305.347 79.549,303.917 80.254 C 302.725 80.841,301.400 81.568,300.973 81.869 C 300.546 82.170,299.346 83.013,298.307 83.742 C 297.267 84.471,296.104 85.306,295.721 85.597 C 295.082 86.085,294.513 86.337,291.801 87.335 C 291.279 87.527,290.260 88.077,289.537 88.558 C 288.158 89.477,287.783 89.640,285.083 90.498 C 284.167 90.789,282.929 91.311,282.333 91.657 C 280.807 92.544,279.437 93.053,276.750 93.731 C 275.467 94.055,273.480 94.666,272.334 95.088 C 266.009 97.420,264.679 97.630,252.917 98.156 C 250.181 98.278,248.980 98.408,247.417 98.752 C 241.552 100.043,233.372 100.046,228.928 98.758 C 228.133 98.528,226.658 98.290,225.332 98.179 C 224.095 98.075,222.183 97.912,221.083 97.816 C 219.983 97.720,218.371 97.452,217.500 97.219 C 214.884 96.521,212.822 96.047,211.500 95.839 C 210.813 95.731,209.575 95.464,208.750 95.247 C 207.925 95.029,206.162 94.655,204.833 94.417 C 203.504 94.178,201.404 93.765,200.167 93.500 C 198.929 93.235,197.467 92.970,196.917 92.912 C 195.690 92.781,193.471 92.139,191.934 91.468 C 191.303 91.193,189.653 90.714,188.268 90.406 C 184.471 89.559,182.940 89.081,180.667 88.030 C 179.820 87.638,178.637 87.298,177.000 86.974 C 173.817 86.346,173.037 86.109,171.249 85.227 C 169.328 84.281,167.739 83.864,165.295 83.667 C 162.978 83.479,161.133 83.038,159.432 82.262 C 158.750 81.951,157.079 81.308,155.721 80.833 C 154.362 80.358,152.387 79.522,151.333 78.974 C 148.851 77.685,147.024 76.948,144.752 76.320 C 143.743 76.041,141.492 75.336,139.750 74.754 C 138.008 74.172,135.646 73.498,134.500 73.256 C 131.738 72.673,131.000 72.430,129.417 71.579 C 127.352 70.470,126.141 70.225,119.583 69.590 C 112.085 68.864,111.679 68.797,110.121 68.025 C 107.247 66.600,99.416 66.581,94.833 67.988 C 92.451 68.719,92.194 68.777,88.417 69.416 C 84.453 70.088,82.207 70.639,81.046 71.225 C 80.608 71.446,79.237 71.977,78.000 72.405 C 76.762 72.833,75.375 73.400,74.917 73.664 C 73.101 74.712,71.835 75.316,70.024 75.996 C 65.246 77.789,58.916 82.625,54.966 87.500 C 53.960 88.742,52.920 89.901,49.771 93.291 C 47.428 95.813,46.900 96.528,46.063 98.320 L 45.321 99.908 46.105 101.495 C 46.759 102.819,47.128 103.319,48.320 104.500 C 49.106 105.279,51.972 108.167,54.689 110.917 C 60.485 116.785,62.063 118.218,62.569 118.070 C 64.482 117.511,69.571 112.978,72.685 109.061 C 72.924 108.760,73.527 108.181,74.026 107.775 C 74.524 107.369,75.249 106.618,75.636 106.105 C 76.023 105.592,76.770 104.858,77.295 104.473 C 77.820 104.088,78.672 103.349,79.188 102.831 C 79.704 102.313,80.754 101.525,81.521 101.081 C 82.289 100.637,83.254 99.964,83.667 99.587 C 84.079 99.210,84.867 98.576,85.417 98.177 C 85.967 97.778,86.792 97.171,87.250 96.828 C 88.448 95.932,92.499 93.557,94.151 92.783 C 94.926 92.419,95.941 91.897,96.406 91.622 C 97.715 90.846,99.288 90.364,102.825 89.655 C 104.885 89.241,107.000 88.688,108.576 88.148 C 110.010 87.658,111.461 87.269,111.993 87.234 C 117.825 86.846,118.993 86.819,123.018 86.985 C 128.075 87.194,129.133 87.327,131.667 88.079 C 134.467 88.910,137.588 89.638,139.981 90.018 C 141.137 90.202,143.005 90.500,144.132 90.680 C 145.511 90.901,146.708 91.217,147.798 91.648 C 150.264 92.623,151.860 93.110,154.417 93.668 C 159.148 94.700,161.025 95.180,162.281 95.679 C 163.848 96.302,166.954 97.021,170.083 97.485 C 174.877 98.197,175.461 98.343,177.300 99.282 C 178.720 100.008,179.552 100.290,182.119 100.919 C 183.835 101.339,185.825 101.945,186.570 102.274 C 188.666 103.202,189.082 103.321,191.750 103.758 C 198.370 104.842,198.663 104.909,200.250 105.707 C 202.750 106.964,204.709 107.484,208.552 107.910 C 211.377 108.224,212.586 108.497,214.333 109.218 C 215.455 109.682,216.079 109.828,217.333 109.920 C 218.204 109.985,219.779 110.219,220.833 110.441 C 222.122 110.712,223.758 110.897,225.824 111.004 C 227.514 111.092,229.031 111.207,229.196 111.259 C 229.694 111.417,246.130 111.447,247.917 111.293 C 248.833 111.214,252.583 111.086,256.250 111.009 C 261.301 110.902,263.179 110.806,264.000 110.610 C 265.052 110.358,267.102 110.164,271.917 109.857 C 274.036 109.723,274.472 109.636,276.667 108.918 C 278.747 108.237,279.362 108.108,281.083 107.992 C 283.439 107.833,288.437 106.847,289.796 106.274 C 290.321 106.052,291.275 105.644,291.917 105.366 C 292.558 105.088,294.021 104.659,295.167 104.413 C 298.201 103.760,299.412 103.381,301.000 102.585 C 301.779 102.195,303.429 101.524,304.667 101.095 C 306.018 100.626,307.516 99.961,308.417 99.429 C 309.242 98.942,310.704 98.225,311.667 97.835 C 314.128 96.839,314.464 96.653,317.083 94.831 C 318.367 93.939,319.647 93.091,319.929 92.948 C 320.211 92.805,321.025 92.158,321.738 91.511 C 322.451 90.863,323.103 90.333,323.187 90.333 C 323.565 90.333,326.589 88.790,327.115 88.328 C 327.438 88.044,328.350 87.396,329.143 86.887 C 329.935 86.378,331.108 85.564,331.750 85.076 C 332.392 84.589,333.438 83.915,334.075 83.579 C 334.778 83.208,335.696 82.509,336.409 81.804 C 343.316 74.969,344.791 73.571,346.167 72.557 C 348.122 71.115,348.058 71.196,348.586 69.523 L 349.022 68.144 348.219 67.219 C 347.778 66.709,347.235 66.058,347.014 65.771 C 346.792 65.485,345.629 64.237,344.430 63.000 C 343.231 61.762,341.269 59.731,340.071 58.486 C 337.496 55.810,337.920 56.060,336.133 56.165 M339.610 60.005 C 339.809 60.231,340.390 60.827,340.902 61.329 C 341.414 61.831,341.833 62.306,341.833 62.384 C 341.833 62.462,342.511 63.214,343.340 64.055 C 347.664 68.442,347.284 67.826,346.741 69.565 C 346.358 70.795,346.239 70.999,345.797 71.182 C 344.823 71.585,343.394 72.812,340.750 75.514 C 339.283 77.013,337.708 78.600,337.250 79.042 C 336.792 79.483,336.020 80.227,335.535 80.695 C 334.352 81.837,333.609 82.358,332.034 83.149 C 330.781 83.779,329.742 84.584,329.402 85.188 C 329.319 85.337,328.762 85.701,328.167 85.997 C 327.571 86.293,326.541 86.978,325.877 87.518 C 325.091 88.158,324.134 88.731,323.127 89.164 C 321.998 89.649,321.382 90.033,320.833 90.594 C 320.418 91.019,319.340 91.774,318.417 92.286 C 317.500 92.795,316.487 93.452,316.167 93.746 C 315.272 94.567,314.656 94.944,313.488 95.386 C 312.899 95.609,311.854 96.068,311.167 96.406 C 310.479 96.743,309.365 97.250,308.692 97.532 C 308.018 97.814,307.080 98.305,306.608 98.623 C 304.965 99.729,304.405 99.981,302.466 100.482 C 300.254 101.054,299.203 101.533,298.257 102.399 C 297.897 102.730,297.575 103.000,297.542 103.000 C 295.585 103.000,289.809 104.458,288.688 105.235 C 287.661 105.947,283.519 106.833,281.219 106.833 C 279.601 106.833,276.855 107.242,275.115 107.742 C 272.885 108.383,271.228 108.635,268.583 108.737 C 266.835 108.805,265.507 108.960,264.167 109.253 C 261.695 109.795,249.294 110.080,234.417 109.938 C 224.327 109.842,223.959 109.818,220.250 109.013 C 219.425 108.835,218.116 108.602,217.341 108.497 C 216.565 108.391,215.665 108.170,215.341 108.004 C 214.269 107.458,213.001 107.179,210.778 106.998 C 205.878 106.600,203.577 106.154,202.716 105.436 C 201.526 104.442,199.811 103.881,197.083 103.592 C 193.660 103.229,192.175 102.892,190.463 102.093 C 188.502 101.178,187.212 100.782,184.486 100.260 C 182.662 99.910,182.000 99.693,180.444 98.935 C 176.711 97.117,175.315 96.716,169.333 95.747 C 165.357 95.103,163.757 94.710,162.231 94.003 C 160.912 93.392,159.150 92.976,156.917 92.748 C 154.005 92.452,150.894 91.654,150.028 90.982 C 149.005 90.188,147.227 89.781,143.167 89.411 C 139.843 89.108,137.796 88.667,136.564 87.991 C 134.586 86.904,131.364 86.379,125.250 86.147 C 114.266 85.729,107.627 86.319,104.336 88.004 C 103.748 88.305,102.605 88.635,101.167 88.917 C 96.772 89.780,95.803 90.094,94.670 91.024 C 94.352 91.286,94.029 91.500,93.952 91.500 C 93.876 91.500,93.106 91.837,92.241 92.250 C 91.376 92.662,90.598 93.000,90.513 93.000 C 90.428 93.000,90.017 93.261,89.600 93.579 C 89.183 93.898,88.319 94.421,87.681 94.743 C 87.044 95.064,85.998 95.759,85.357 96.288 C 84.717 96.817,83.763 97.587,83.239 98.000 C 82.714 98.412,81.977 99.021,81.601 99.353 C 81.225 99.685,80.485 100.199,79.957 100.495 C 79.020 101.020,77.833 102.193,77.833 102.594 C 77.833 102.800,76.797 103.667,76.549 103.667 C 76.264 103.667,75.151 104.714,74.894 105.223 C 74.600 105.807,73.848 106.667,73.632 106.667 C 73.260 106.667,72.146 107.607,71.645 108.343 C 71.336 108.797,70.939 109.215,70.762 109.272 C 70.424 109.380,66.622 113.149,65.726 114.265 C 65.375 114.701,64.724 115.158,63.754 115.647 L 62.307 116.377 61.612 115.707 C 61.229 115.339,60.606 114.846,60.226 114.612 C 59.847 114.377,59.364 113.944,59.155 113.650 C 58.946 113.356,56.948 111.282,54.716 109.041 C 52.484 106.799,50.477 104.729,50.256 104.440 C 50.036 104.150,49.543 103.689,49.161 103.415 C 48.620 103.027,48.310 102.588,47.759 101.433 L 47.051 99.948 47.601 98.623 C 47.976 97.722,48.412 97.023,48.963 96.440 C 49.409 95.969,49.973 95.283,50.217 94.917 C 50.461 94.550,51.040 93.924,51.504 93.526 C 51.968 93.128,52.574 92.403,52.849 91.914 C 53.125 91.426,53.627 90.822,53.967 90.571 C 54.758 89.986,55.085 89.596,55.580 88.648 C 55.802 88.225,56.365 87.559,56.832 87.167 C 57.300 86.776,57.826 86.174,58.002 85.830 C 58.339 85.170,59.159 84.466,60.227 83.922 C 60.581 83.742,61.138 83.267,61.466 82.867 C 61.823 82.432,62.466 81.936,63.068 81.632 C 63.622 81.353,64.485 80.790,64.986 80.381 C 65.993 79.562,67.147 78.940,69.414 77.998 C 74.210 76.003,75.013 75.599,76.066 74.647 C 76.568 74.193,77.156 73.828,77.500 73.758 C 81.083 73.025,83.293 72.298,84.583 71.429 C 85.532 70.789,86.835 70.518,91.073 70.075 C 93.931 69.776,95.469 69.506,98.167 68.831 C 102.606 67.720,105.411 67.882,109.917 69.511 C 110.710 69.798,111.778 69.936,115.083 70.179 C 122.905 70.753,123.271 70.802,124.634 71.447 C 126.021 72.104,129.949 73.412,131.265 73.655 C 131.750 73.745,132.582 74.038,133.115 74.306 C 134.260 74.883,136.078 75.472,138.879 76.175 C 140.000 76.455,141.387 76.872,141.963 77.100 C 142.538 77.327,143.828 77.729,144.829 77.992 C 147.214 78.617,149.061 79.339,150.148 80.071 C 150.686 80.433,151.780 80.896,152.971 81.266 C 155.507 82.053,156.626 82.486,157.298 82.940 C 158.531 83.773,162.649 84.664,165.274 84.666 C 166.924 84.667,168.646 85.148,169.546 85.858 C 170.805 86.854,171.792 87.161,175.361 87.671 L 178.723 88.150 179.570 88.984 C 180.670 90.068,181.055 90.210,184.333 90.743 C 185.931 91.003,187.335 91.324,187.685 91.509 C 190.164 92.824,193.809 93.972,197.167 94.497 C 197.854 94.604,198.942 94.834,199.583 95.006 C 200.225 95.179,202.129 95.547,203.815 95.824 C 205.501 96.101,207.894 96.595,209.133 96.921 C 212.856 97.900,217.556 98.724,221.000 99.002 C 226.224 99.423,227.655 99.651,228.911 100.263 C 231.450 101.499,243.673 101.604,247.027 100.419 C 249.490 99.549,250.730 99.343,253.583 99.330 C 255.050 99.324,257.000 99.255,257.917 99.176 C 258.833 99.098,260.671 98.949,262.000 98.846 C 267.415 98.424,269.070 98.131,270.884 97.273 C 272.276 96.614,273.831 96.090,276.417 95.409 C 280.224 94.406,283.892 92.948,285.100 91.957 C 285.666 91.493,286.186 91.283,287.667 90.919 C 289.175 90.548,290.275 89.992,291.250 89.107 C 292.034 88.396,293.388 87.767,294.917 87.404 C 295.741 87.209,296.885 86.565,297.417 85.998 C 297.994 85.383,299.649 84.211,300.500 83.814 C 300.821 83.664,301.308 83.301,301.583 83.006 C 302.085 82.467,303.134 81.836,303.535 81.830 C 304.077 81.823,306.650 80.599,307.487 79.951 C 307.998 79.554,308.792 79.015,309.250 78.751 C 309.708 78.487,310.458 77.928,310.917 77.507 C 311.375 77.087,312.087 76.564,312.500 76.346 C 312.912 76.128,313.761 75.529,314.385 75.016 C 315.009 74.503,315.721 73.933,315.968 73.749 C 316.215 73.566,317.001 72.981,317.716 72.451 C 318.431 71.920,319.061 71.368,319.116 71.224 C 319.172 71.080,319.833 70.678,320.587 70.332 C 321.905 69.725,322.598 69.110,322.888 68.287 C 322.946 68.124,323.351 67.838,323.788 67.651 C 324.847 67.197,326.960 65.942,327.583 65.395 C 327.858 65.154,328.571 64.635,329.167 64.242 C 330.442 63.400,333.138 60.691,333.641 59.745 C 334.410 58.300,334.652 58.136,336.190 58.008 L 337.583 57.893 338.417 58.743 C 338.875 59.210,339.412 59.778,339.610 60.005 " fill="#fff" fill-rule="evenodd"></path><path id="path3" d="M335.500 55.486 C 334.319 55.620,333.951 55.882,332.686 57.488 C 331.267 59.290,328.376 62.051,326.571 63.327 C 325.753 63.906,324.777 64.651,324.401 64.982 C 324.026 65.313,323.288 65.846,322.761 66.167 C 322.234 66.487,321.479 67.129,321.084 67.592 C 320.535 68.234,319.979 68.628,318.738 69.252 C 317.635 69.806,316.787 70.382,316.098 71.042 C 315.540 71.577,314.720 72.204,314.275 72.435 C 313.225 72.981,309.057 75.812,307.667 76.923 C 306.341 77.982,303.955 79.440,302.092 80.329 C 301.327 80.694,300.338 81.271,299.892 81.612 C 297.938 83.106,297.203 83.632,296.500 84.038 C 296.087 84.276,295.525 84.691,295.250 84.960 C 294.602 85.595,294.406 85.692,291.997 86.578 C 290.883 86.987,289.608 87.584,289.164 87.902 C 287.939 88.783,286.958 89.225,284.553 89.980 C 283.345 90.359,281.800 90.964,281.120 91.325 C 279.610 92.124,278.426 92.531,275.490 93.258 C 274.247 93.566,272.709 94.005,272.073 94.233 C 265.616 96.553,262.638 97.073,254.417 97.320 C 250.398 97.441,249.190 97.537,247.250 97.890 C 241.286 98.975,233.357 98.985,229.000 97.912 C 227.919 97.646,226.464 97.464,224.417 97.340 C 221.288 97.149,218.981 96.822,217.786 96.400 C 216.669 96.005,213.393 95.212,211.667 94.918 C 210.796 94.769,209.408 94.469,208.583 94.249 C 207.758 94.030,205.921 93.690,204.500 93.494 C 203.079 93.299,201.167 92.951,200.250 92.722 C 199.333 92.493,197.908 92.196,197.083 92.062 C 196.258 91.929,194.697 91.520,193.613 91.155 C 192.529 90.789,190.354 90.201,188.779 89.848 C 187.205 89.495,185.204 88.930,184.333 88.592 C 182.096 87.724,179.375 86.860,178.228 86.653 C 175.856 86.225,174.287 85.747,172.500 84.907 C 170.153 83.803,168.655 83.409,165.588 83.087 C 163.067 82.822,162.749 82.737,160.417 81.710 C 159.592 81.347,158.054 80.767,157.000 80.421 C 155.946 80.075,153.771 79.155,152.167 78.377 C 148.313 76.508,148.457 76.566,145.583 75.748 C 144.208 75.356,142.411 74.765,141.590 74.433 C 139.743 73.689,138.221 73.262,136.167 72.914 C 132.739 72.333,131.406 71.884,129.275 70.595 C 128.457 70.101,126.597 69.729,123.333 69.408 C 114.125 68.502,112.328 68.208,110.590 67.327 C 107.442 65.731,97.470 65.926,92.833 67.675 C 91.126 68.319,90.077 68.568,86.583 69.155 C 82.748 69.799,81.290 70.177,79.516 70.987 C 78.728 71.347,77.333 71.919,76.417 72.258 C 75.500 72.598,73.962 73.269,73.000 73.751 C 72.037 74.232,70.356 74.975,69.264 75.402 C 64.800 77.145,57.945 82.476,54.457 86.917 C 53.812 87.738,53.051 88.575,49.247 92.647 C 46.941 95.115,46.128 96.227,45.079 98.344 L 44.289 99.939 45.172 101.594 C 45.843 102.852,46.400 103.607,47.486 104.735 C 48.273 105.552,49.554 106.889,50.333 107.706 C 51.112 108.524,52.721 110.143,53.907 111.304 C 55.093 112.466,57.013 114.358,58.174 115.509 C 61.564 118.870,61.939 119.058,63.981 118.413 L 65.312 117.992 68.984 114.165 C 71.003 112.060,72.966 109.945,73.345 109.465 C 73.724 108.985,74.312 108.389,74.651 108.140 C 74.990 107.890,75.626 107.198,76.064 106.601 C 76.539 105.954,77.163 105.338,77.609 105.077 C 78.020 104.836,78.857 104.171,79.470 103.599 C 80.647 102.498,81.653 101.765,82.750 101.206 C 83.117 101.020,83.991 100.391,84.693 99.808 C 87.139 97.779,92.923 94.100,94.917 93.305 C 95.375 93.122,96.688 92.497,97.833 91.917 C 99.680 90.982,100.144 90.821,101.917 90.504 C 107.559 89.496,108.230 89.335,109.667 88.639 C 112.892 87.078,127.058 87.085,130.632 88.650 C 131.871 89.192,134.978 89.855,140.083 90.667 C 142.849 91.106,143.928 91.367,146.417 92.194 C 149.805 93.320,152.736 94.139,157.587 95.315 C 159.422 95.760,161.634 96.390,162.503 96.714 C 163.752 97.181,164.993 97.450,168.417 97.994 C 173.843 98.856,175.185 99.171,176.704 99.935 C 177.519 100.346,178.968 100.810,181.129 101.353 C 183.062 101.839,184.855 102.401,185.629 102.763 C 187.379 103.583,188.683 103.942,191.066 104.259 C 195.307 104.824,198.171 105.470,199.189 106.090 C 200.525 106.905,203.230 107.760,205.750 108.163 C 206.942 108.354,208.367 108.589,208.917 108.686 C 210.085 108.892,212.726 109.627,214.483 110.236 C 215.304 110.521,216.250 110.697,217.316 110.764 C 218.196 110.819,220.042 111.092,221.417 111.369 C 225.287 112.149,245.753 112.738,249.152 112.166 C 249.756 112.065,252.800 111.941,255.917 111.891 C 260.836 111.813,261.913 111.748,264.083 111.396 C 265.645 111.143,267.914 110.931,270.127 110.831 C 273.929 110.660,275.372 110.399,278.376 109.338 C 279.173 109.057,280.325 108.795,281.019 108.737 C 284.716 108.429,290.322 107.106,292.333 106.066 C 293.434 105.497,294.326 105.204,296.333 104.749 C 299.487 104.035,300.540 103.692,302.723 102.670 C 303.654 102.234,305.054 101.670,305.833 101.415 C 307.348 100.922,308.367 100.455,309.833 99.585 C 310.337 99.286,311.575 98.721,312.583 98.331 C 313.975 97.791,314.985 97.235,316.778 96.019 C 318.077 95.138,319.614 94.098,320.195 93.709 C 320.775 93.319,321.700 92.562,322.250 92.026 C 322.948 91.346,323.552 90.934,324.250 90.665 C 325.864 90.040,327.133 89.363,327.797 88.770 C 328.138 88.466,329.182 87.722,330.118 87.118 C 331.053 86.514,332.200 85.718,332.667 85.349 C 333.134 84.980,333.973 84.434,334.532 84.136 C 335.737 83.494,337.286 82.113,342.037 77.448 C 343.979 75.540,346.134 73.580,346.826 73.091 C 348.909 71.620,349.281 71.140,349.649 69.454 L 349.966 68.004 349.086 67.018 C 348.602 66.475,347.792 65.518,347.286 64.891 C 346.223 63.573,338.846 56.059,338.190 55.626 C 337.738 55.327,337.163 55.298,335.500 55.486 M340.071 58.486 C 341.269 59.731,343.231 61.762,344.430 63.000 C 345.629 64.237,346.792 65.485,347.014 65.771 C 347.235 66.058,347.778 66.709,348.219 67.219 L 349.022 68.144 348.586 69.523 C 348.058 71.196,348.122 71.115,346.167 72.557 C 344.791 73.571,343.316 74.969,336.409 81.804 C 335.696 82.509,334.778 83.208,334.075 83.579 C 333.438 83.915,332.392 84.589,331.750 85.076 C 331.108 85.564,329.935 86.378,329.143 86.887 C 328.350 87.396,327.438 88.044,327.115 88.328 C 326.589 88.790,323.565 90.333,323.187 90.333 C 323.103 90.333,322.451 90.863,321.738 91.511 C 321.025 92.158,320.211 92.805,319.929 92.948 C 319.647 93.091,318.367 93.939,317.083 94.831 C 314.464 96.653,314.128 96.839,311.667 97.835 C 310.704 98.225,309.242 98.942,308.417 99.429 C 307.516 99.961,306.018 100.626,304.667 101.095 C 303.429 101.524,301.779 102.195,301.000 102.585 C 299.412 103.381,298.201 103.760,295.167 104.413 C 294.021 104.659,292.558 105.088,291.917 105.366 C 291.275 105.644,290.321 106.052,289.796 106.274 C 288.437 106.847,283.439 107.833,281.083 107.992 C 279.362 108.108,278.747 108.237,276.667 108.918 C 274.472 109.636,274.036 109.723,271.917 109.857 C 267.102 110.164,265.052 110.358,264.000 110.610 C 263.179 110.806,261.301 110.902,256.250 111.009 C 252.583 111.086,248.833 111.214,247.917 111.293 C 246.130 111.447,229.694 111.417,229.196 111.259 C 229.031 111.207,227.514 111.092,225.824 111.004 C 223.758 110.897,222.122 110.712,220.833 110.441 C 219.779 110.219,218.204 109.985,217.333 109.920 C 216.079 109.828,215.455 109.682,214.333 109.218 C 212.586 108.497,211.377 108.224,208.552 107.910 C 204.709 107.484,202.750 106.964,200.250 105.707 C 198.663 104.909,198.370 104.842,191.750 103.758 C 189.082 103.321,188.666 103.202,186.570 102.274 C 185.825 101.945,183.835 101.339,182.119 100.919 C 179.552 100.290,178.720 100.008,177.300 99.282 C 175.461 98.343,174.877 98.197,170.083 97.485 C 166.954 97.021,163.848 96.302,162.281 95.679 C 161.025 95.180,159.148 94.700,154.417 93.668 C 151.860 93.110,150.264 92.623,147.798 91.648 C 146.708 91.217,145.511 90.901,144.132 90.680 C 143.005 90.500,141.137 90.202,139.981 90.018 C 137.588 89.638,134.467 88.910,131.667 88.079 C 129.133 87.327,128.075 87.194,123.018 86.985 C 118.993 86.819,117.825 86.846,111.993 87.234 C 111.461 87.269,110.010 87.658,108.576 88.148 C 107.000 88.688,104.885 89.241,102.825 89.655 C 99.288 90.364,97.715 90.846,96.406 91.622 C 95.941 91.897,94.926 92.419,94.151 92.783 C 92.499 93.557,88.448 95.932,87.250 96.828 C 86.792 97.171,85.967 97.778,85.417 98.177 C 84.867 98.576,84.079 99.210,83.667 99.587 C 83.254 99.964,82.289 100.637,81.521 101.081 C 80.754 101.525,79.704 102.313,79.188 102.831 C 78.672 103.349,77.820 104.088,77.295 104.473 C 76.770 104.858,76.023 105.592,75.636 106.105 C 75.249 106.618,74.524 107.369,74.026 107.775 C 73.527 108.181,72.924 108.760,72.685 109.061 C 69.571 112.978,64.482 117.511,62.569 118.070 C 62.063 118.218,60.485 116.785,54.689 110.917 C 51.972 108.167,49.106 105.279,48.320 104.500 C 47.128 103.319,46.759 102.819,46.105 101.495 L 45.321 99.908 46.063 98.320 C 46.900 96.528,47.428 95.813,49.771 93.291 C 52.920 89.901,53.960 88.742,54.966 87.500 C 58.916 82.625,65.246 77.789,70.024 75.996 C 71.835 75.316,73.101 74.712,74.917 73.664 C 75.375 73.400,76.762 72.833,78.000 72.405 C 79.237 71.977,80.608 71.446,81.046 71.225 C 82.207 70.639,84.453 70.088,88.417 69.416 C 92.194 68.777,92.451 68.719,94.833 67.988 C 99.416 66.581,107.247 66.600,110.121 68.025 C 111.679 68.797,112.085 68.864,119.583 69.590 C 126.141 70.225,127.352 70.470,129.417 71.579 C 131.000 72.430,131.738 72.673,134.500 73.256 C 135.646 73.498,138.008 74.172,139.750 74.754 C 141.492 75.336,143.743 76.041,144.752 76.320 C 147.024 76.948,148.851 77.685,151.333 78.974 C 152.387 79.522,154.362 80.358,155.721 80.833 C 157.079 81.308,158.750 81.951,159.432 82.262 C 161.133 83.038,162.978 83.479,165.295 83.667 C 167.739 83.864,169.328 84.281,171.249 85.227 C 173.037 86.109,173.817 86.346,177.000 86.974 C 178.637 87.298,179.820 87.638,180.667 88.030 C 182.940 89.081,184.471 89.559,188.268 90.406 C 189.653 90.714,191.303 91.193,191.934 91.468 C 193.471 92.139,195.690 92.781,196.917 92.912 C 197.467 92.970,198.929 93.235,200.167 93.500 C 201.404 93.765,203.504 94.178,204.833 94.417 C 206.162 94.655,207.925 95.029,208.750 95.247 C 209.575 95.464,210.813 95.731,211.500 95.839 C 212.822 96.047,214.884 96.521,217.500 97.219 C 218.371 97.452,219.983 97.720,221.083 97.816 C 222.183 97.912,224.095 98.075,225.332 98.179 C 226.658 98.290,228.133 98.528,228.928 98.758 C 233.372 100.046,241.552 100.043,247.417 98.752 C 248.980 98.408,250.181 98.278,252.917 98.156 C 264.679 97.630,266.009 97.420,272.334 95.088 C 273.480 94.666,275.467 94.055,276.750 93.731 C 279.437 93.053,280.807 92.544,282.333 91.657 C 282.929 91.311,284.167 90.789,285.083 90.498 C 287.783 89.640,288.158 89.477,289.537 88.558 C 290.260 88.077,291.279 87.527,291.801 87.335 C 294.513 86.337,295.082 86.085,295.721 85.597 C 296.104 85.306,297.267 84.471,298.307 83.742 C 299.346 83.013,300.546 82.170,300.973 81.869 C 301.400 81.568,302.725 80.841,303.917 80.254 C 305.347 79.549,306.717 78.705,307.947 77.771 C 308.972 76.993,310.486 75.903,311.310 75.349 C 312.134 74.795,312.856 74.266,312.913 74.173 C 312.970 74.081,313.557 73.691,314.217 73.306 C 314.877 72.922,315.867 72.181,316.417 71.659 C 317.073 71.037,318.008 70.407,319.136 69.827 C 320.487 69.133,321.021 68.751,321.623 68.046 C 322.062 67.531,322.865 66.871,323.506 66.496 C 324.121 66.138,324.989 65.558,325.437 65.209 C 325.884 64.860,326.775 64.206,327.417 63.757 C 328.978 62.664,331.404 60.291,333.046 58.250 C 333.783 57.333,334.453 56.508,334.534 56.417 C 334.683 56.248,337.452 56.019,337.738 56.151 C 337.823 56.191,338.873 57.241,340.071 58.486 " fill="#fff" fill-rule="evenodd"></path><path id="path4" d="M333.563 54.568 C 333.093 54.786,332.568 55.173,332.396 55.426 C 332.083 55.887,331.785 56.181,330.388 57.409 C 329.976 57.772,329.494 58.352,329.317 58.699 C 329.111 59.102,328.751 59.454,328.314 59.677 C 327.939 59.868,327.153 60.470,326.567 61.015 C 325.981 61.560,325.183 62.211,324.792 62.461 C 323.820 63.085,321.833 64.669,321.833 64.820 C 321.833 64.888,321.481 65.197,321.049 65.506 C 320.618 65.816,319.753 66.576,319.127 67.195 C 318.247 68.064,317.756 68.404,316.968 68.692 C 315.876 69.090,314.904 69.912,314.736 70.578 C 314.659 70.886,314.428 71.052,313.776 71.268 C 312.149 71.805,309.860 72.994,309.512 73.484 C 309.326 73.744,308.749 74.159,308.230 74.405 C 307.710 74.651,306.827 75.285,306.268 75.814 C 305.186 76.837,303.506 77.839,302.001 78.360 C 301.497 78.534,300.815 78.894,300.485 79.159 C 300.155 79.424,299.541 79.802,299.120 80.000 C 298.699 80.198,297.806 80.844,297.136 81.436 C 296.010 82.429,295.093 83.043,293.441 83.910 C 293.088 84.095,292.547 84.526,292.239 84.867 C 291.804 85.349,291.444 85.548,290.631 85.758 C 288.716 86.252,287.261 86.958,286.512 87.756 C 286.130 88.164,285.652 88.536,285.450 88.582 C 285.248 88.628,284.051 88.888,282.789 89.160 C 280.312 89.693,279.247 90.087,278.333 90.810 C 278.012 91.064,277.663 91.323,277.557 91.386 C 277.296 91.541,274.405 92.106,272.727 92.330 C 270.929 92.570,269.195 93.062,267.758 93.742 C 265.261 94.922,262.766 95.231,253.583 95.497 C 249.864 95.604,248.092 95.727,246.667 95.976 C 241.095 96.947,233.388 96.927,228.917 95.928 C 228.275 95.785,225.926 95.555,223.696 95.417 C 221.466 95.279,219.441 95.121,219.196 95.065 C 217.784 94.741,215.683 94.078,215.018 93.746 C 213.704 93.091,210.138 92.474,206.333 92.243 C 202.755 92.026,200.379 91.509,199.057 90.659 C 198.674 90.413,197.433 90.143,194.474 89.663 C 187.604 88.549,187.326 88.486,186.667 87.911 C 185.323 86.738,184.943 86.617,180.677 86.006 L 177.313 85.523 176.608 84.873 C 175.648 83.989,174.306 83.388,172.373 82.976 C 171.480 82.785,170.075 82.407,169.250 82.134 C 168.425 81.861,166.737 81.420,165.500 81.154 C 162.569 80.524,160.247 79.823,159.324 79.291 C 158.916 79.057,157.946 78.663,157.167 78.417 C 154.177 77.473,152.399 76.760,151.842 76.280 C 150.986 75.543,150.077 75.204,147.977 74.836 C 145.395 74.384,144.390 74.060,143.451 73.375 C 142.314 72.548,141.085 72.222,137.622 71.830 C 133.498 71.362,132.816 71.170,131.723 70.171 C 130.434 68.993,129.909 68.867,124.667 68.474 C 120.161 68.137,120.062 68.122,118.821 67.569 C 117.360 66.920,114.996 66.271,113.083 65.995 C 112.350 65.889,111.150 65.661,110.417 65.489 C 104.339 64.058,92.493 65.010,88.465 67.252 L 86.846 68.153 84.465 68.413 C 79.016 69.007,78.344 69.187,77.167 70.363 C 76.580 70.950,76.168 71.110,72.502 72.172 C 71.086 72.582,70.260 72.971,69.564 73.553 C 69.300 73.774,68.272 74.228,67.281 74.563 C 65.037 75.320,64.300 75.693,63.468 76.493 C 63.107 76.839,62.405 77.329,61.908 77.580 C 61.412 77.831,60.742 78.347,60.420 78.727 C 59.512 79.795,59.474 79.829,58.500 80.390 C 57.832 80.775,57.448 81.149,57.083 81.767 C 56.738 82.352,56.342 82.750,55.805 83.050 C 55.096 83.446,54.000 84.719,54.000 85.147 C 54.000 85.240,53.719 85.522,53.375 85.773 C 52.306 86.555,51.650 87.225,51.312 87.881 C 51.133 88.228,50.700 88.716,50.351 88.965 C 49.729 89.406,49.372 89.824,48.619 90.991 C 48.416 91.307,47.855 91.869,47.373 92.241 C 46.820 92.667,46.266 93.310,45.873 93.982 C 45.530 94.567,44.962 95.317,44.611 95.648 C 42.992 97.173,42.502 99.636,43.359 101.941 C 43.734 102.951,47.388 107.322,50.351 110.307 C 51.048 111.009,51.784 111.827,51.987 112.124 C 52.189 112.422,52.688 112.861,53.096 113.099 C 53.503 113.338,54.192 113.928,54.627 114.411 C 55.061 114.893,55.727 115.481,56.107 115.718 C 56.487 115.955,57.199 116.609,57.690 117.173 C 58.727 118.362,60.626 119.685,61.746 119.999 C 63.702 120.546,66.758 119.513,67.709 117.983 C 67.988 117.534,68.280 117.167,68.358 117.167 C 68.664 117.167,69.891 115.888,70.341 115.100 C 70.645 114.567,71.135 114.048,71.700 113.661 C 72.260 113.277,72.797 112.711,73.167 112.114 C 73.529 111.529,74.049 110.976,74.537 110.656 C 75.047 110.323,75.536 109.793,75.924 109.155 C 76.327 108.491,76.805 107.982,77.389 107.594 C 77.866 107.278,78.494 106.681,78.786 106.267 C 79.112 105.804,79.625 105.357,80.117 105.105 C 80.999 104.655,81.903 103.835,82.246 103.177 C 82.395 102.890,82.760 102.648,83.359 102.438 C 84.434 102.061,85.815 101.172,86.454 100.443 C 87.140 99.663,88.284 98.899,89.367 98.499 C 89.890 98.306,90.565 97.914,90.867 97.628 C 91.421 97.102,94.030 95.681,95.069 95.338 C 95.378 95.236,95.986 94.917,96.421 94.629 C 96.856 94.341,97.671 93.940,98.231 93.737 C 100.781 92.817,101.966 92.363,102.331 92.168 C 103.018 91.800,105.693 91.215,107.250 91.092 C 108.177 91.018,109.310 90.787,110.215 90.487 C 111.021 90.220,112.369 89.924,113.210 89.828 C 114.051 89.733,115.342 89.499,116.078 89.308 C 118.719 88.624,122.955 88.921,128.417 90.176 C 129.975 90.534,132.150 90.929,133.250 91.054 C 135.110 91.265,137.545 91.816,141.833 92.999 C 142.796 93.264,144.183 93.603,144.917 93.752 C 145.650 93.901,146.751 94.246,147.364 94.519 C 148.552 95.049,149.559 95.306,154.164 96.257 C 155.767 96.588,157.567 97.066,158.164 97.320 C 159.671 97.961,162.285 98.620,164.167 98.834 C 169.744 99.469,171.579 99.797,172.707 100.359 C 173.234 100.622,174.059 100.944,174.541 101.075 C 175.022 101.206,175.679 101.393,176.000 101.491 C 176.321 101.589,177.408 101.817,178.417 102.000 C 181.789 102.608,182.058 102.685,182.658 103.211 C 183.979 104.368,185.839 104.889,189.917 105.246 C 193.533 105.562,193.776 105.608,194.415 106.087 C 195.554 106.941,199.827 108.500,201.028 108.500 C 201.212 108.500,201.825 108.756,202.390 109.070 C 203.692 109.792,205.203 110.236,207.833 110.667 C 211.315 111.238,212.505 111.512,213.822 112.045 C 214.860 112.466,215.430 112.579,217.041 112.684 C 218.118 112.754,219.581 112.927,220.291 113.068 C 222.196 113.447,224.222 113.667,225.829 113.668 C 226.611 113.669,227.887 113.743,228.667 113.832 C 230.609 114.056,247.933 114.063,249.694 113.841 C 250.458 113.745,253.821 113.636,257.167 113.599 C 262.157 113.543,263.699 113.468,265.750 113.183 C 267.125 112.991,269.112 112.834,270.167 112.833 C 272.936 112.830,274.623 112.595,276.086 112.010 C 277.785 111.329,279.265 111.004,281.166 110.893 C 282.783 110.799,285.557 110.080,288.553 108.979 C 289.270 108.716,290.026 108.500,290.235 108.500 C 291.653 108.500,294.869 107.252,295.937 106.287 C 296.561 105.723,296.689 105.685,299.616 105.193 C 303.005 104.624,304.039 104.261,304.891 103.339 C 305.381 102.810,305.671 102.664,306.696 102.434 C 309.415 101.822,310.592 101.368,311.443 100.603 C 312.124 99.991,312.603 99.757,314.395 99.161 C 316.185 98.565,316.706 98.311,317.592 97.600 C 318.174 97.132,319.271 96.375,320.031 95.917 C 320.791 95.458,321.751 94.737,322.164 94.315 C 322.578 93.892,323.307 93.349,323.784 93.108 C 324.260 92.866,325.048 92.347,325.534 91.954 C 326.019 91.561,326.754 91.141,327.167 91.022 C 328.169 90.732,329.837 89.634,330.250 88.991 C 330.633 88.396,331.666 87.638,332.466 87.366 C 333.250 87.099,333.923 86.580,334.321 85.936 C 334.577 85.522,334.915 85.287,335.633 85.026 C 336.567 84.685,336.958 84.394,340.523 81.379 C 341.667 80.412,344.678 77.515,345.654 76.445 C 345.890 76.185,346.382 75.779,346.747 75.543 C 347.112 75.307,347.826 74.694,348.334 74.182 C 348.842 73.669,349.526 73.049,349.855 72.804 C 351.790 71.358,351.842 67.020,349.940 65.642 C 349.570 65.375,349.056 64.768,348.797 64.295 C 348.539 63.823,347.794 62.869,347.142 62.176 C 344.175 59.024,342.371 57.211,341.833 56.842 C 341.512 56.622,340.837 56.020,340.333 55.505 C 338.921 54.064,335.625 53.607,333.563 54.568 M338.190 55.626 C 338.846 56.059,346.223 63.573,347.286 64.891 C 347.792 65.518,348.602 66.475,349.086 67.018 L 349.966 68.004 349.649 69.454 C 349.281 71.140,348.909 71.620,346.826 73.091 C 346.134 73.580,343.979 75.540,342.037 77.448 C 337.286 82.113,335.737 83.494,334.532 84.136 C 333.973 84.434,333.134 84.980,332.667 85.349 C 332.200 85.718,331.053 86.514,330.118 87.118 C 329.182 87.722,328.138 88.466,327.797 88.770 C 327.133 89.363,325.864 90.040,324.250 90.665 C 323.552 90.934,322.948 91.346,322.250 92.026 C 321.700 92.562,320.775 93.319,320.195 93.709 C 319.614 94.098,318.077 95.138,316.778 96.019 C 314.985 97.235,313.975 97.791,312.583 98.331 C 311.575 98.721,310.337 99.286,309.833 99.585 C 308.367 100.455,307.348 100.922,305.833 101.415 C 305.054 101.670,303.654 102.234,302.723 102.670 C 300.540 103.692,299.487 104.035,296.333 104.749 C 294.326 105.204,293.434 105.497,292.333 106.066 C 290.322 107.106,284.716 108.429,281.019 108.737 C 280.325 108.795,279.173 109.057,278.376 109.338 C 275.372 110.399,273.929 110.660,270.127 110.831 C 267.914 110.931,265.645 111.143,264.083 111.396 C 261.913 111.748,260.836 111.813,255.917 111.891 C 252.800 111.941,249.756 112.065,249.152 112.166 C 245.753 112.738,225.287 112.149,221.417 111.369 C 220.042 111.092,218.196 110.819,217.316 110.764 C 216.250 110.697,215.304 110.521,214.483 110.236 C 212.726 109.627,210.085 108.892,208.917 108.686 C 208.367 108.589,206.942 108.354,205.750 108.163 C 203.230 107.760,200.525 106.905,199.189 106.090 C 198.171 105.470,195.307 104.824,191.066 104.259 C 188.683 103.942,187.379 103.583,185.629 102.763 C 184.855 102.401,183.062 101.839,181.129 101.353 C 178.968 100.810,177.519 100.346,176.704 99.935 C 175.185 99.171,173.843 98.856,168.417 97.994 C 164.993 97.450,163.752 97.181,162.503 96.714 C 161.634 96.390,159.422 95.760,157.587 95.315 C 152.736 94.139,149.805 93.320,146.417 92.194 C 143.928 91.367,142.849 91.106,140.083 90.667 C 134.978 89.855,131.871 89.192,130.632 88.650 C 127.058 87.085,112.892 87.078,109.667 88.639 C 108.230 89.335,107.559 89.496,101.917 90.504 C 100.144 90.821,99.680 90.982,97.833 91.917 C 96.688 92.497,95.375 93.122,94.917 93.305 C 92.923 94.100,87.139 97.779,84.693 99.808 C 83.991 100.391,83.117 101.020,82.750 101.206 C 81.653 101.765,80.647 102.498,79.470 103.599 C 78.857 104.171,78.020 104.836,77.609 105.077 C 77.163 105.338,76.539 105.954,76.064 106.601 C 75.626 107.198,74.990 107.890,74.651 108.140 C 74.312 108.389,73.724 108.985,73.345 109.465 C 72.966 109.945,71.003 112.060,68.984 114.165 L 65.312 117.992 63.981 118.413 C 61.939 119.058,61.564 118.870,58.174 115.509 C 57.013 114.358,55.093 112.466,53.907 111.304 C 52.721 110.143,51.112 108.524,50.333 107.706 C 49.554 106.889,48.273 105.552,47.486 104.735 C 46.400 103.607,45.843 102.852,45.172 101.594 L 44.289 99.939 45.079 98.344 C 46.128 96.227,46.941 95.115,49.247 92.647 C 53.051 88.575,53.812 87.738,54.457 86.917 C 57.945 82.476,64.800 77.145,69.264 75.402 C 70.356 74.975,72.037 74.232,73.000 73.751 C 73.962 73.269,75.500 72.598,76.417 72.258 C 77.333 71.919,78.728 71.347,79.516 70.987 C 81.290 70.177,82.748 69.799,86.583 69.155 C 90.077 68.568,91.126 68.319,92.833 67.675 C 97.470 65.926,107.442 65.731,110.590 67.327 C 112.328 68.208,114.125 68.502,123.333 69.408 C 126.597 69.729,128.457 70.101,129.275 70.595 C 131.406 71.884,132.739 72.333,136.167 72.914 C 138.221 73.262,139.743 73.689,141.590 74.433 C 142.411 74.765,144.208 75.356,145.583 75.748 C 148.457 76.566,148.313 76.508,152.167 78.377 C 153.771 79.155,155.946 80.075,157.000 80.421 C 158.054 80.767,159.592 81.347,160.417 81.710 C 162.749 82.737,163.067 82.822,165.588 83.087 C 168.655 83.409,170.153 83.803,172.500 84.907 C 174.287 85.747,175.856 86.225,178.228 86.653 C 179.375 86.860,182.096 87.724,184.333 88.592 C 185.204 88.930,187.205 89.495,188.779 89.848 C 190.354 90.201,192.529 90.789,193.613 91.155 C 194.697 91.520,196.258 91.929,197.083 92.062 C 197.908 92.196,199.333 92.493,200.250 92.722 C 201.167 92.951,203.079 93.299,204.500 93.494 C 205.921 93.690,207.758 94.030,208.583 94.249 C 209.408 94.469,210.796 94.769,211.667 94.918 C 213.393 95.212,216.669 96.005,217.786 96.400 C 218.981 96.822,221.288 97.149,224.417 97.340 C 226.464 97.464,227.919 97.646,229.000 97.912 C 233.357 98.985,241.286 98.975,247.250 97.890 C 249.190 97.537,250.398 97.441,254.417 97.320 C 262.638 97.073,265.616 96.553,272.073 94.233 C 272.709 94.005,274.247 93.566,275.490 93.258 C 278.426 92.531,279.610 92.124,281.120 91.325 C 281.800 90.964,283.345 90.359,284.553 89.980 C 286.958 89.225,287.939 88.783,289.164 87.902 C 289.608 87.584,290.883 86.987,291.997 86.578 C 294.406 85.692,294.602 85.595,295.250 84.960 C 295.525 84.691,296.087 84.276,296.500 84.038 C 297.203 83.632,297.938 83.106,299.892 81.612 C 300.338 81.271,301.327 80.694,302.092 80.329 C 303.955 79.440,306.341 77.982,307.667 76.923 C 309.057 75.812,313.225 72.981,314.275 72.435 C 314.720 72.204,315.540 71.577,316.098 71.042 C 316.787 70.382,317.635 69.806,318.738 69.252 C 319.979 68.628,320.535 68.234,321.084 67.592 C 321.479 67.129,322.234 66.487,322.761 66.167 C 323.288 65.846,324.026 65.313,324.401 64.982 C 324.777 64.651,325.753 63.906,326.571 63.327 C 328.376 62.051,331.267 59.290,332.686 57.488 C 333.951 55.882,334.319 55.620,335.500 55.486 C 337.163 55.298,337.738 55.327,338.190"  fill="#fff" fill-rule="evenodd"></path></g></svg>