<svg xmlns="http://www.w3.org/2000/svg" width="36" height="50" viewBox="0 0 36 50" version="1.1">
    <path d="M 7.407 8.750 C 7.760 10.262, 8.410 15.550, 8.853 20.500 C 9.680 28.753, 11.630 32.088, 14.898 37 C 19 38.9, 20.9 35, 19 37 C 22.890 33.983, 24.7 24, 24.9 23 C 25 21.740, 25.539 19.012, 26.399 11.546 C 26.858 9.081, 27.022 6.712, 26.562 6.282 C 26.102 5.852, 25.525 6.063, 25.280 6.750 C 24.729 8.293, 9 8.535, 9 7 C 9 6.450, 8.498 6, 7.883 6 C 7.177 6, 7.002 7.010, 7.407 8.750 M 9 10.500 C 9 11.708, 10.556 12, 17 12 C 23.444 12, 25 11.708, 25 10.500 C 25 9.292, 23.444 9, 17 9 C 10.556 9, 9 9.292, 9 10.500 M 10.298 21.012 C 10.889 28.068, 13.891 35.361, 16.639 36.415 C 19.149 37.378, 23.230 28.519, 23.773 20.925 L 24.269 14 21.134 14 C 18.458 14, 18 14.365, 18 16.500 C 18 17.875, 17.550 19, 17 19 C 16.450 19, 16 17.875, 16 16.500 C 16 12.848, 14.196 13.442, 13.723 17.250 L 13.320 20.500 13.160 17.250 C 13.048 14.965, 12.511 14, 11.355 14 C 9.929 14, 9.788 14.933, 10.298 21.012" fill="#fff" fill-rule="evenodd"/>
    <path d="M 0 25.023 L 0 50.045 18.250 49.773 L 36.500 49.500 36.767 24.750 L 37.035 -0 18.517 -0 L 0 0 0 25.023 M 0.434 25.500 C 0.433 39.250, 0.574 45.014, 0.747 38.308 C 0.919 31.603, 0.920 20.353, 0.748 13.308 C 0.576 6.264, 0.434 11.750, 0.434 25.500 M 7.407 8.750 C 7.760 10.262, 8.410 15.550, 8.853 20.500 C 9.680 29.753, 11.230 34.088, 14.898 37.407 C 16.964 39.278, 17.036 39.278, 19.106 37.405 C 22.890 33.983, 25 28.487, 25 22.054 C 25 18.740, 25.539 14.012, 26.199 11.546 C 26.858 9.081, 27.022 6.712, 26.562 6.282 C 26.102 5.852, 25.525 6.063, 25.280 6.750 C 24.729 8.293, 9 8.535, 9 7 C 9 6.450, 8.498 6, 7.883 6 C 7.177 6, 7.002 7.010, 7.407 8.750 M 9 10.500 C 9 11.708, 10.556 12, 17 12 C 23.444 12, 25 11.708, 25 10.500 C 25 9.292, 23.444 9, 17 9 C 10.556 9, 9 9.292, 9 10.500 M 10.298 21.012 C 10.889 28.068, 13.891 35.361, 16.639 36.415 C 19.149 37.378, 23.230 28.519, 23.773 20.925 L 24.269 14 21.134 14 C 18.458 14, 18 14.365, 18 16.500 C 18 17.875, 17.550 19, 17 19 C 16.450 19, 16 17.875, 16 16.500 C 16 12.848, 14.196 13.442, 13.723 17.250 L 13.320 20.500 13.160 17.250 C 13.048 14.965, 12.511 14, 11.355 14 C 9.929 14, 9.788 14.933, 10.298 21.012" fill="transparent" fill-rule="evenodd"/>
</svg>
