<svg version="1.1" xmlns="http://www.w3.org/2000/svg" xmlns:xlink="http://www.w3.org/1999/xlink" x="0px" y="0px" width="20px" height="18px" viewBox="0 0 100 86.96" enable-background="new 0 0 100 69.568" xml:space="preserve">
      <g transform="translate(100, 0) scale(-1, 1)">
    <path d="M25.13,7.358c1.666-2.661,4.761-1.604,4.559,1.976l-0.558,55.31c-0.028,2.738-1.509,4.929-3.321,4.91L2.447,69.569c-2.556-0.702-3.08-2.775-1.713-5.842L25.13,7.358z" fill="white"/>
    <path transform="rotate(90.5 68 37)" d="M39.622,39.274c-0.348,0.017-0.69,0.068-1.018,0.165c-1.313,0.388-2.27,1.537-2.658,3.016l-0.033,0.134v0.145l0.274,22.631c0,0.003,0,0.006,0,0.01c0.006,1.296,0.8,2.396,1.868,3.101c1.071,0.707,2.457,1.097,3.969,1.095l53.61-0.069v-0.005c2.019,0.076,3.634-0.804,4.182-2.234c0.553-1.443-0.174-3.158-1.773-4.134l-0.066-0.043l-0.078-0.029L43.009,40.038c-0.003-0.002-0.006-0.003-0.01-0.005C41.789,39.511,40.663,39.223,39.622,39.274L39.622,39.274z M39.72,41.364c0.604-0.02,1.439,0.145,2.465,0.588h0.005l0.005,0.005l54.799,22.978c0.953,0.599,1.035,1.171,0.877,1.584c-0.162,0.42-0.759,0.961-2.189,0.896h-0.024h-0.024l-53.61,0.069c-1.143,0.001-2.154-0.313-2.816-0.75c-0.662-0.438-0.938-0.917-0.938-1.373v-0.005v-0.01l-0.27-22.477c0.262-0.908,0.628-1.26,1.199-1.429C39.347,41.397,39.52,41.369,39.72,41.364L39.72,41.364z" fill="white"/>
      </g>
</svg>