<svg version="1.1" xmlns="http://www.w3.org/2000/svg" xmlns:xlink="http://www.w3.org/1999/xlink" x="0px" y="0px" width="20px" height="18px" viewBox="0 0 100 86.96" enable-background="new 0 0 100 69.568" xml:space="preserve">
    <!-- Flip left using transform -->
    <g transform="translate(100, 0) scale(-1, 1)">
        <path d="M39.622,39.274c-0.348,0.017-0.69,0.068-1.018,0.165c-1.313,0.388-2.27,1.537-2.658,3.016l-0.033,0.134v0.145l0.274,22.631c0,0.003,0,0.006,0,0.01c0.006,1.296,0.8,2.396,1.868,3.101c1.071,0.707,2.457,1.097,3.969,1.095l53.61-0.069v-0.005c2.019,0.076,3.634-0.804,4.182-2.234c0.553-1.443-0.174-3.158-1.773-4.134l-0.066-0.043l-0.078-0.029L43.009,40.038c-0.003-0.002-0.006-0.003-0.01-0.005C41.789,39.511,40.663,39.223,39.622,39.274L39.622,39.274z M39.72,41.364c0.604-0.02,1.439,0.145,2.465,0.588h0.005l0.005,0.005l54.799" fill="white"/>
        <path d="M50.025,0L36.691,7.82l13.427,7.633l-0.031-4.268c13.635-0.578,25.323,9.669,26.45,23.396c0.019,0.224,0.018,0.46,0.031,0.685l-4.643,0.031l8.008,0.0739l7.912-0.0-4.33,0.031c-0.015-0.415-0.028-0.831-0.062-1.246C82.035,16.752,67.194,3.717,50.057,4.299L50.025,0L50.025,0z" fill="white" />
    </g>
</svg>